<?xml version="1.0" encoding="UTF-8" standalone="no"?>
<!-- Created with Inkscape (http://www.inkscape.org/) -->

<svg
   xmlns:dc="http://purl.org/dc/elements/1.1/"
   xmlns:cc="http://creativecommons.org/ns#"
   xmlns:rdf="http://www.w3.org/1999/02/22-rdf-syntax-ns#"
   xmlns:svg="http://www.w3.org/2000/svg"
   xmlns="http://www.w3.org/2000/svg"
   xmlns:sodipodi="http://sodipodi.sourceforge.net/DTD/sodipodi-0.dtd"
   xmlns:inkscape="http://www.inkscape.org/namespaces/inkscape"
   width="69.556091"
   height="96.678894"
   id="svg78704"
   version="1.1"
   inkscape:version="0.48.3.1 r9886"
   sodipodi:docname="signe.svg"
   inkscape:export-filename="/Users/raphael/Documents/WORK/PERSO/Petits projets/fait main/magazine/couv-mag2.png"
   inkscape:export-xdpi="90"
   inkscape:export-ydpi="90">
  <defs
     id="defs78706">
    <clipPath
       clipPathUnits="userSpaceOnUse"
       id="clipPath79766">
      <rect
         style="opacity:0.8640777;color:#000000;fill:#003380;fill-opacity:1;fill-rule:nonzero;stroke:none;stroke-width:2;marker:none;visibility:visible;display:inline;overflow:visible;enable-background:accumulate"
         id="rect79768"
         width="994.28571"
         height="165.71431"
         x="2500"
         y="-172.3622"
         transform="scale(1,-1)" />
    </clipPath>
    <clipPath
       clipPathUnits="userSpaceOnUse"
       id="clipPath79774">
      <rect
         style="color:#000000;fill:#d40000;fill-opacity:1;fill-rule:nonzero;stroke:none;stroke-width:2;marker:none;visibility:visible;display:inline;overflow:visible;enable-background:accumulate"
         id="rect79776"
         width="191.75204"
         height="326.64285"
         x="1437.1428"
         y="697.14789" />
    </clipPath>
  </defs>
  <sodipodi:namedview
     id="base"
     pagecolor="#ffffff"
     bordercolor="#666666"
     borderopacity="1.0"
     inkscape:pageopacity="0.0"
     inkscape:pageshadow="2"
     inkscape:zoom="2.0906626"
     inkscape:cx="-0.31288064"
     inkscape:cy="33.304527"
     inkscape:document-units="px"
     inkscape:current-layer="layer1"
     showgrid="false"
     showguides="true"
     inkscape:guide-bbox="true"
     inkscape:window-width="1438"
     inkscape:window-height="816"
     inkscape:window-x="0"
     inkscape:window-y="24"
     inkscape:window-maximized="1"
     inkscape:snap-page="true"
     inkscape:snap-to-guides="false"
     fit-margin-top="0"
     fit-margin-left="0"
     fit-margin-right="0"
     fit-margin-bottom="0" />
  <metadata
     id="metadata78709">
    <rdf:RDF>
      <cc:Work
         rdf:about="">
        <dc:format>image/svg+xml</dc:format>
        <dc:type
           rdf:resource="http://purl.org/dc/dcmitype/StillImage" />
        <dc:title />
      </cc:Work>
    </rdf:RDF>
  </metadata>
  <g
     inkscape:label="Layer 1"
     inkscape:groupmode="layer"
     id="layer1"
     transform="translate(-57.593974,-46.25026)">
    <g
       transform="matrix(1.1721709,0,0,1.1721709,650.49146,-1222.7831)"
       id="g3281"
       inkscape:export-filename="/Users/raphael/Documents/WORK/PERSO/Petits projets/fait main/avatar.png"
       inkscape:export-xdpi="126.36"
       inkscape:export-ydpi="126.36">
      <path
         inkscape:connector-curvature="0"
         id="path3285"
         d="m -488.36072,1082.6351 0,2.2122 35.60373,0 0,17.8719 -1.86094,0 0,-14.9577 0,-1.0884 -1.12359,0 -40.80034,0 -1.08848,0 0,1.0884 0,4.0028 0,1.1236 1.08848,0 35.63884,0 0,14.9577 0,1.0886 1.08848,0 11.13056,0 0,1.7906 -14.07998,0 0,-14.9226 0,-1.1236 -1.12359,0 -36.72732,0 -1.08848,0 0,1.1236 0,4.0028 0,1.1236 1.08848,0 31.53072,0 0,14.9226 0,1.1236 1.12359,0 12.21904,0 7.05754,0 0,25.8778 -34.48015,0 0,-1.7908 7.02244,0 1.12359,0 0,-1.1236 0,-14.9579 1.86094,0 0,14.9579 0,1.1236 1.12359,0 12.21903,0 1.12359,0 0,-1.1236 0,-14.9579 1.86095,0 0,14.9579 0,1.1236 1.08848,0 4.10812,0 1.08847,0 0,-1.1236 0,-20.0842 0,-1.0884 -1.08847,0 -12.25415,0 -1.12359,0 0,1.0884 0,14.9578 -1.86094,0 0,-14.9578 0,-1.0884 -1.08848,0 -12.25415,0 -1.08848,0 0,1.0884 0,14.9578 -7.05753,0 -1.12359,0 0,1.1236 0,2.8792 -1.86095,0 0,-5.7935 7.05754,0 1.12359,0 0,-1.1236 0,-12.0435 0,-1.0884 -1.12359,0 -7.05754,0 0,-1.7908 19.31169,0 1.08847,0 0,-1.1236 0,-12.0434 0,-1.0886 -1.08847,0 -32.65431,0 -1.12359,0 0,1.0886 0,32.1276 0,1.0885 1.12359,0 4.07301,0 1.12359,0 0,-1.0885 0,-27.0012 22.26111,0 0,1.7906 -19.31169,0 -1.08848,0 0,1.1236 0,12.0435 0,1.0884 1.08848,0 7.05755,0 0,1.7909 -7.05755,0 -1.08848,0 0,1.1235 0,10.9199 -2.98453,0 -1.08848,0 0,1.1236 0,4.0027 0,1.1237 1.08848,0 11.13056,0 0,2.8791 0,1.1236 1.12359,0 35.60373,0 0,1.7908 -38.58827,0 0,-2.9144 0,-1.0884 -1.08848,0 -4.10812,0 -1.08848,0 0,1.0884 0,8.0408 0,1.1236 1.08848,0 39.71186,0 0,1.7906 -35.60374,0 -1.12359,0 0,1.0886 0,4.0378 0,1.0885 1.12359,0 32.6192,0 0,-2.2121 -31.53072,0 0,-1.7906 35.60374,0 1.12359,0 0,-1.1236 0,-4.0028 0,-1.1236 -1.12359,0 -39.67675,0 0,-5.7936 1.86094,0 0,2.9144 0,1.0884 1.12359,0 40.80034,0 1.08847,0 0,-1.0884 0,-4.038 0,-1.0884 -1.08847,0 -35.60374,0 0,-2.9144 0,-1.0883 -1.12358,0 -11.13056,0 0,-1.7908 2.94942,0 1.12359,0 0,-1.1236 0,-10.9199 7.05755,0 1.12358,0 0,-1.1236 0,-4.0028 0,-1.1236 -1.12358,0 -7.05755,0 0,-9.7963 19.27658,0 1.12359,0 0,-1.1236 0,-4.0028 0,-1.1236 -1.12359,0 -24.47318,0 -1.08848,0 0,1.1236 0,26.9662 -1.86095,0 0,-29.8804 30.40714,0 0,9.8314 -19.27658,0 -1.12359,0 0,1.0884 0,4.0028 0,1.1236 1.12359,0 7.02244,0 0,9.8314 -7.02244,0 -1.12359,0 0,1.0885 0,8.0407 0,1.1236 1.12359,0 4.07302,0 1.12358,0 0,-1.1236 0,-2.9143 7.02243,0 1.1236,0 0,-1.0885 0,-14.9578 10.00696,0 0,14.9578 0,1.0885 1.12359,0 4.07301,0 1.12359,0 0,-1.0885 0,-14.9578 10.00697,0 0,17.837 -1.86094,0 0,-14.9227 0,-1.1236 -1.12359,0 -4.07302,0 -1.08848,0 0,1.1236 0,14.9227 -10.04208,0 0,-14.9227 0,-1.1236 -1.08847,0 -4.10812,0 -1.08848,0 0,1.1236 0,14.9227 -7.05755,0 -1.12358,0 0,1.1236 0,4.0027 0,1.1237 1.12358,0 36.72732,0 1.08848,0 0,-1.1237 0,-28.0897 0,-1.0884 -1.08848,0 -8.18112,0 -11.13056,0 0,-14.9578 0,-1.1236 -1.08848,0 -31.53072,0 0,-1.7908 34.48014,0 0,14.9578 0,1.1236 1.12359,0 16.32715,0 1.08848,0 0,-1.1236 0,-4.0028 0,-1.1236 -1.08848,0 -11.13055,0 0,-14.9577 0,-1.0884 -1.12359,0 -35.60373,0 0,-1.7908 38.58827,0 0,14.9227 0,1.1236 1.08848,0 4.10812,0 1.08847,0 0,-1.1236 0,-20.0491 0,-1.1236 -1.08847,0 -36.72732,0 z"
         style="font-size:medium;font-style:normal;font-variant:normal;font-weight:normal;font-stretch:normal;text-indent:0;text-align:start;text-decoration:none;line-height:normal;letter-spacing:normal;word-spacing:normal;text-transform:none;direction:ltr;block-progression:tb;writing-mode:lr-tb;text-anchor:start;baseline-shift:baseline;color:#000000;fill:#a02c5a;fill-opacity:1;stroke:none;stroke-width:1.97710192;marker:none;visibility:visible;display:inline;overflow:visible;enable-background:accumulate;font-family:Sans;-inkscape-font-specification:Sans" />
    </g>
  </g>
</svg>
