<?xml version="1.0" encoding="UTF-8" standalone="no"?>
<!-- Created with Inkscape (http://www.inkscape.org/) -->

<svg
   xmlns:dc="http://purl.org/dc/elements/1.1/"
   xmlns:cc="http://creativecommons.org/ns#"
   xmlns:rdf="http://www.w3.org/1999/02/22-rdf-syntax-ns#"
   xmlns:svg="http://www.w3.org/2000/svg"
   xmlns="http://www.w3.org/2000/svg"
   xmlns:sodipodi="http://sodipodi.sourceforge.net/DTD/sodipodi-0.dtd"
   xmlns:inkscape="http://www.inkscape.org/namespaces/inkscape"
   width="31"
   height="43.088001"
   id="svg2"
   version="1.1"
   inkscape:version="0.48.2 r9819"
   sodipodi:docname="logo.svg"
   inkscape:export-filename="/Users/raphael/Documents/WORK/PERSO/Petits projets/fait main/faitmain.org/maquettes/logo-small.png"
   inkscape:export-xdpi="90"
   inkscape:export-ydpi="90">
  <defs
     id="defs4" />
  <sodipodi:namedview
     id="base"
     pagecolor="#ffffff"
     bordercolor="#666666"
     borderopacity="1.0"
     inkscape:pageopacity="0.0"
     inkscape:pageshadow="2"
     inkscape:zoom="8"
     inkscape:cx="9.9721847"
     inkscape:cy="15.800593"
     inkscape:document-units="px"
     inkscape:current-layer="layer1"
     showgrid="false"
     inkscape:window-width="1440"
     inkscape:window-height="852"
     inkscape:window-x="49"
     inkscape:window-y="36"
     inkscape:window-maximized="0"
     showguides="true"
     inkscape:guide-bbox="true"
     inkscape:snap-page="true"
     inkscape:snap-grids="true"
     fit-margin-top="0"
     fit-margin-left="0"
     fit-margin-right="0"
     fit-margin-bottom="0">
    <inkscape:grid
       type="xygrid"
       id="grid2985"
       empspacing="5"
       visible="true"
       enabled="true"
       snapvisiblegridlinesonly="true" />
  </sodipodi:namedview>
  <metadata
     id="metadata7">
    <rdf:RDF>
      <cc:Work
         rdf:about="">
        <dc:format>image/svg+xml</dc:format>
        <dc:type
           rdf:resource="http://purl.org/dc/dcmitype/StillImage" />
        <dc:title></dc:title>
      </cc:Work>
    </rdf:RDF>
  </metadata>
  <g
     inkscape:label="Layer 1"
     inkscape:groupmode="layer"
     id="layer1"
     transform="translate(0,-1009.2742)"
     style="opacity:0.86000001;display:inline">
    <path
       style="font-size:medium;font-style:normal;font-variant:normal;font-weight:normal;font-stretch:normal;text-indent:0;text-align:start;text-decoration:none;line-height:normal;letter-spacing:normal;word-spacing:normal;text-transform:none;direction:ltr;block-progression:tb;writing-mode:lr-tb;text-anchor:start;baseline-shift:baseline;color:#000000;fill:#008066;fill-opacity:1;stroke:none;stroke-width:1.97710192;marker:none;visibility:visible;display:inline;overflow:visible;enable-background:accumulate;font-family:Sans;-inkscape-font-specification:Sans"
       d="m 9.1165885,1009.3622 0,1.1557 18.6000465,0 0,9.3141 -0.97216,0 0,-7.7961 0,-0.5681 -0.587039,0 -21.3147245,0 -0.5686761,0 0,0.5681 0,2.0844 0,0.5852 0.5686761,0 18.6183905,0 0,7.799 0,0.5706 0.56851,0 5.814863,0 0,0.9334 -7.35568,0 0,-7.7826 0,-0.5851 -0.58683,0 -19.1870935,0 -0.5688192,0 0,0.5851 0,2.0902 0,0.586 0.5688192,0 16.4721765,0 0,7.7754 0,0.5851 0.587077,0 6.383311,0 3.687039,0 0,13.4923 -18.01317,0 0,-0.9352 3.668797,0 0.587016,0 0,-0.5851 0,-7.799 0.972311,0 0,7.799 0,0.5851 0.586698,0 6.383485,0 0.587023,0 0,-0.5851 0,-7.799 0.972302,0 0,7.799 0,0.5851 0.568499,0 2.14623,0 0.568649,0 0,-0.5851 0,-10.4662 0,-0.5705 -0.568649,0 -6.401701,0 -0.587194,0 0,0.5705 0,7.799 -0.972004,0 0,-7.799 0,-0.5705 -0.568642,0 -6.401847,0 -0.568714,0 0,0.5705 0,7.799 -3.6869755,0 -0.586892,0 0,0.5852 0,1.4968 -0.972115,0 0,-3.0172 3.6868575,0 0.586866,0 0,-0.5852 0,-6.2786 0,-0.5705 -0.586866,0 -3.6868575,0 0,-0.9353 10.0885455,0 0.568816,0 0,-0.5851 0,-6.2785 0,-0.567 -0.568816,0 -17.05908234,0 -0.58704466,0 0,0.567 0,16.7536 0,0.5616 0.58704466,0 2.12782684,0 0.586891,0 0,-0.5616 0,-14.0775 11.6296365,0 0,0.9334 -10.0886875,0 -0.5686761,0 0,0.587 0,6.2786 0,0.5615 0.5686761,0 3.686985,0 0,0.9352 -3.686985,0 -0.5686761,0 0,0.5852 0,5.6934 -1.5591639,0 -0.5688192,0 0,0.5852 0,2.0909 0,0.5852 0.5688192,0 5.814825,0 0,1.4968 0,0.5863 0.586892,0 18.6000465,0 0,0.9341 -20.1590535,0 0,-1.5204 0,-0.5615 -0.5688252,0 -2.1460448,0 -0.5686761,0 0,0.5615 0,4.1966 0,0.5852 0.5686761,0 20.7462255,0 0,0.9352 -18.6001807,0 -0.5868851,0 0,0.5617 0,2.1054 0,0.5706 0.5868851,0 17.0408557,0 0,-1.1559 -16.4720305,0 0,-0.9323 18.5998545,0 0.587039,0 0,-0.5878 0,-2.0821 0,-0.5853 -0.587039,0 -20.727849,0 0,-3.025 0.9722842,0 0,1.5193 0,0.5705 0.5868851,0 21.3149097,0 0.568649,0 0,-0.5705 0,-2.1056 0,-0.5615 -0.568649,0 -18.6000322,0 0,-1.5205 0,-0.5706 -0.5870453,0 -5.814826,0 0,-0.9352 1.540949,0 0.5868755,0 0,-0.5851 0,-5.6934 3.6870015,0 0.5870453,0 0,-0.5852 0,-2.0819 0,-0.5854 -0.5870453,0 -3.6870015,0 0,-5.1079 10.070515,0 0.587016,0 0,-0.5853 0,-2.091 0,-0.5851 -0.587016,0 -12.7852305,0 -0.5688192,0 0,0.5851 0,14.0629 -0.9719648,0 0,-15.5832 15.8853415,0 0,5.128 -10.0706727,0 -0.5868851,0 0,0.5653 0,2.0909 0,0.5853 0.5868851,0 3.6687797,0 0,5.1228 -3.6687797,0 -0.5868851,0 0,0.5705 0,4.1876 0,0.5851 0.5868851,0 2.1278322,0 0.5870453,0 0,-0.5851 0,-1.5204 3.6686442,0 0.587005,0 0,-0.5616 0,-7.7989 5.227765,0 0,7.7989 0,0.5616 0.587077,0 2.12784,0 0.58683,0 0,-0.5616 0,-7.7989 5.22784,0 0,9.2957 -0.97216,0 0,-7.7753 0,-0.5854 -0.587039,0 -2.127824,0 -0.56851,0 0,0.5854 0,7.7753 -5.246159,0 0,-7.7753 0,-0.5854 -0.568816,0 -2.146025,0 -0.568703,0 0,0.5854 0,7.7753 -3.68696,0 -0.586903,0 0,0.5852 0,2.0909 0,0.5852 0.586903,0 19.187051,0 0.56851,0 0,-0.5852 0,-14.648 0,-0.5653 -0.56851,0 -4.274054,0 -5.814669,0 0,-7.7961 0,-0.5878 -0.568642,0 -16.4723625,0 0,-0.9318 18.0130085,0 0,7.799 0,0.5853 0.587194,0 8.529525,0 0.56851,0 0,-0.5853 0,-2.091 0,-0.5851 -0.56851,0 -5.814855,0 0,-7.7991 0,-0.5684 -0.587023,0 -18.600025,0 0,-0.9283 20.15935,0 0,7.7754 0,0.5852 0.568499,0 2.14623,0 0.568649,0 0,-0.5852 0,-10.4516 0,-0.5852 -0.568649,0 -19.1870775,0 z"
       id="path3173"
       inkscape:connector-curvature="0"
       inkscape:export-filename="/Users/raphael/Documents/WORK/PERSO/Petits projets/fait main/logo.png"
       inkscape:export-xdpi="2036.53"
       inkscape:export-ydpi="2036.53" />
  </g>
  <g
     inkscape:groupmode="layer"
     id="layer2"
     inkscape:label="grid"
     style="opacity:0.05392157;display:none"
     transform="translate(0,-956.91203)"
     sodipodi:insensitive="true">
    <rect
       style="color:#000000;fill:#0000ff;fill-opacity:1;fill-rule:nonzero;stroke:none;stroke-width:1;marker:none;visibility:visible;display:inline;overflow:visible;enable-background:accumulate"
       id="rect4033"
       width="1040"
       height="1200"
       x="200"
       y="-200" />
    <rect
       style="color:#000000;fill:#0000ff;fill-opacity:1;fill-rule:nonzero;stroke:none;stroke-width:1;marker:none;visibility:visible;display:inline;overflow:visible;enable-background:accumulate"
       id="rect4033-0"
       width="1440"
       height="80"
       x="0"
       y="-200" />
  </g>
</svg>
